<svg xmlns="http://www.w3.org/2000/svg" width="128" height="128" viewBox="0 0 128 128">
  <title>CLOCK</title>
  <g>
    <path d="M98.846,45.116a41.417,41.417,0,1,0-43.657,62.853,41.784,41.784,0,0,0,8.894.963A41.428,41.428,0,0,0,98.846,45.116Zm2.2,30.451A37.9,37.9,0,1,1,95.9,47.007,37.671,37.671,0,0,1,101.049,75.567Z"/>
    <path d="M64,39.251a1.751,1.751,0,0,0,1.75-1.75V34.167a1.75,1.75,0,0,0-3.5,0V37.5A1.751,1.751,0,0,0,64,39.251Z"/>
    <path d="M64,95.751a1.751,1.751,0,0,0-1.75,1.75v3.333a1.75,1.75,0,0,0,3.5,0V97.5A1.751,1.751,0,0,0,64,95.751Z"/>
    <path d="M92.25,67.5A1.751,1.751,0,0,0,94,69.251h3.333a1.75,1.75,0,0,0,0-3.5H94A1.751,1.751,0,0,0,92.25,67.5Z"/>
    <path d="M34,65.751H30.667a1.75,1.75,0,0,0,0,3.5H34a1.75,1.75,0,0,0,0-3.5Z"/>
    <path d="M86.589,47.271,64.694,64.711A2.889,2.889,0,0,0,64,64.618a2.829,2.829,0,0,0-.7.1L45.462,50.635a1.75,1.75,0,1,0-2.169,2.747L61.121,67.458c0,.014,0,.028,0,.043s.005.036.005.055L57.174,70.7a1.75,1.75,0,0,0,2.181,2.737l3.952-3.148a2.832,2.832,0,0,0,.693.094,2.876,2.876,0,0,0,.7-.1l3.965,3.131a1.75,1.75,0,0,0,2.169-2.747l-3.96-3.127c0-.015,0-.028,0-.043s0-.036,0-.055L88.77,50.009a1.75,1.75,0,0,0-2.181-2.738Z"/>
  </g>
</svg>
