<svg xmlns="http://www.w3.org/2000/svg" viewBox="0 0 32 32"><defs><style>.cls-1{fill:#231f20;}</style></defs><g id="cream"><path class="cls-1" d="M25,11V10a1,1,0,0,0,1-1V6a1,1,0,0,0-1-1H7A1,1,0,0,0,6,6V9a1,1,0,0,0,1,1v1a2.35,2.35,0,0,0-2,2.32V14a1,1,0,0,0,2,0v-.64A.36.36,0,0,1,7.36,13H24.64a.36.36,0,0,1,.36.36V23.64a.36.36,0,0,1-.36.36H7.36A.36.36,0,0,1,7,23.64V17a1,1,0,0,0-2,0v6.64A2.36,2.36,0,0,0,7.36,26H24.64A2.36,2.36,0,0,0,27,23.64V13.36A2.35,2.35,0,0,0,25,11ZM9,11V10H20a1,1,0,0,0,0-2H8V7H24V8a1,1,0,0,0-1,1v2Z"/><path class="cls-1" d="M16,17a2,2,0,0,1,2,2,1,1,0,0,0,2,0,4,4,0,1,0-4,4,4,4,0,0,0,1.33-.23,1,1,0,0,0,.61-1.28,1,1,0,0,0-1.27-.6A2.19,2.19,0,0,1,16,21a2,2,0,0,1,0-4Z"/></g></svg>