<svg xmlns="http://www.w3.org/2000/svg" viewBox="0 0 32 32"><title>pipette</title><g id="pipette"><path d="M29.32,6.93A4,4,0,0,0,28.15,4.1l-.25-.25a4,4,0,0,0-5.66,0L20.06,6l-.79-.8a1,1,0,0,0-1.41,0L15.61,7.48a1,1,0,0,0,0,1.42l0,0-9,9a5.17,5.17,0,0,0-1.3,4.3L3.54,24a3,3,0,0,0-.86,2.19,3.18,3.18,0,0,0,3.17,3.09A3,3,0,0,0,8,28.46l1.77-1.78a5.16,5.16,0,0,0,4.3-1.3l9-9,0,0a1,1,0,0,0,1.42,0l2.25-2.25a1,1,0,0,0,0-1.41l-.8-.79,2.18-2.18A4,4,0,0,0,29.32,6.93ZM12.62,24a3.24,3.24,0,0,1-3,.67,1,1,0,0,0-.94.27L6.54,27A1.09,1.09,0,0,1,5,27a1.16,1.16,0,0,1-.34-.8A1,1,0,0,1,5,25.46L7.1,23.31a1,1,0,0,0,.27-.95,3.23,3.23,0,0,1,.67-3l9-9,4.59,4.59Zm11.19-9.69L17.73,8.19l.83-.84.79.8,4.5,4.5.8.79Zm2.93-5.92-2.18,2.17L21.48,7.44l2.17-2.18a2.06,2.06,0,0,1,2.83,0l.26.26a2,2,0,0,1,0,2.83Zm-9,3.94a1,1,0,0,1,0,1.42l-4,4a1,1,0,0,1-1.42,0,1,1,0,0,1,0-1.42l4-4A1,1,0,0,1,17.71,12.29Z"/></g></svg>