<svg xmlns="http://www.w3.org/2000/svg" viewBox="0 0 32 32"><defs><style>.cls-1{fill:#231f20;}</style></defs><g id="pills_1" data-name="pills 1"><path class="cls-1" d="M28.38,10.58a6.5,6.5,0,0,0-12,.55L14.51,16.3h0l-1.8,5a6.55,6.55,0,0,0-.38,2.21,4.45,4.45,0,0,1-3.92-3.16L7.09,16,13.9,14A1,1,0,0,0,13.31,12l-6.8,2.08L5.2,9.81a4.5,4.5,0,0,1,8.61-2.62l.64,2.1A1,1,0,0,0,15.7,10a1,1,0,0,0,.66-1.25L15.72,6.6A6.5,6.5,0,1,0,3.29,10.4l1.6,5.26h0L6.5,20.92a6.51,6.51,0,0,0,6.15,4.6,6.52,6.52,0,0,0,3.53,3.92l.43.17a6.49,6.49,0,0,0,8.32-3.9l.67-1.85a1,1,0,0,0-1.88-.68L23.05,25a4.5,4.5,0,0,1-5.76,2.7l-.3-.12A4.51,4.51,0,0,1,14.59,22l1.46-4,9.41,3.41a1,1,0,0,0,.34.06,1,1,0,0,0,.94-.66,1.52,1.52,0,0,0,0-.21,1.08,1.08,0,0,0,.11-.18l1.73-4.79A6.45,6.45,0,0,0,28.38,10.58Zm-1.65,4.29L25.2,19.1,16.74,16l1.53-4.23a4.5,4.5,0,0,1,8.46,3.06Z"/></g></svg>